HIERARCHY
ROOT joint_Root
{
	OFFSET 0.0 0.0 0.0
	CHANNELS 6 Xposition Yposition Zposition Zrotation Xrotation Yrotation 
	JOINT Hips
	{
		OFFSET -0.726466 93.3139 -2.00062
		CHANNELS 6 Xposition Yposition Zposition Zrotation Xrotation Yrotation 
		JOINT Spine
		{
			OFFSET 15.7357 0.0 0.0
			CHANNELS 6 Xposition Yposition Zposition Zrotation Xrotation Yrotation 
			JOINT Chest
			{
				OFFSET 8.98455 -0.406207 0.0
				CHANNELS 6 Xposition Yposition Zposition Zrotation Xrotation Yrotation 
				JOINT Neck
				{
					OFFSET 16.3773 0.0 0.0
					CHANNELS 6 Xposition Yposition Zposition Zrotation Xrotation Yrotation 
					JOINT Head
					{
						OFFSET 6.45672 0.0 0.0
						CHANNELS 6 Xposition Yposition Zposition Zrotation Xrotation Yrotation 
						End Site
						{
							OFFSET 0.0 0.0 0.0
						}
					}
				}
				JOINT Shoulder_L
				{
					OFFSET 12.9942 -0.242716 4.98039
					CHANNELS 6 Xposition Yposition Zposition Zrotation Xrotation Yrotation 
					JOINT UpperArm_L
					{
						OFFSET 5.34809 0.0 0.0
						CHANNELS 6 Xposition Yposition Zposition Zrotation Xrotation Yrotation 
						JOINT LowerArm_L
						{
							OFFSET 24.3286 1.87007e-05 0.0
							CHANNELS 6 Xposition Yposition Zposition Zrotation Xrotation Yrotation 
							JOINT Hand_L
							{
								OFFSET 22.2916 0.0 0.0
								CHANNELS 6 Xposition Yposition Zposition Zrotation Xrotation Yrotation 
								End Site
								{
									OFFSET 0.0 0.0 0.0
								}
							}
						}
					}
				}
				JOINT Shoulder_R
				{
					OFFSET 12.9945 -0.242716 -4.98039
					CHANNELS 6 Xposition Yposition Zposition Zrotation Xrotation Yrotation 
					JOINT UpperArm_R
					{
						OFFSET -5.34813 0.0 0.0
						CHANNELS 6 Xposition Yposition Zposition Zrotation Xrotation Yrotation 
						JOINT LowerArm_R
						{
							OFFSET -24.3289 0.000322201 0.0
							CHANNELS 6 Xposition Yposition Zposition Zrotation Xrotation Yrotation 
							JOINT Hand_R
							{
								OFFSET -22.2915 -0.000108084 0.0
								CHANNELS 6 Xposition Yposition Zposition Zrotation Xrotation Yrotation 
								End Site
								{
									OFFSET 0.0 0.0 0.0
								}
							}
						}
					}
				}
			}
		}
		JOINT UpperLeg_L
		{
			OFFSET -2.19248 -6.46944 0.0
			CHANNELS 6 Xposition Yposition Zposition Zrotation Xrotation Yrotation 
			JOINT LowerLeg_L
			{
				OFFSET 39.0811 0.0 -1.23785e-05
				CHANNELS 6 Xposition Yposition Zposition Zrotation Xrotation Yrotation 
				JOINT Foot_L
				{
					OFFSET 40.9854 0.0 -1.26872e-05
					CHANNELS 6 Xposition Yposition Zposition Zrotation Xrotation Yrotation 
					JOINT Toes_L
					{
						OFFSET 11.7543 0.0 0.0
						CHANNELS 6 Xposition Yposition Zposition Zrotation Xrotation Yrotation 
						End Site
						{
							OFFSET 0.0 0.0 0.0
						}
					}
				}
			}
		}
		JOINT UpperLeg_R
		{
			OFFSET -2.19251 6.46944 0.0
			CHANNELS 6 Xposition Yposition Zposition Zrotation Xrotation Yrotation 
			JOINT LowerLeg_R
			{
				OFFSET -39.0811 -0.00228153 -0.0401928
				CHANNELS 6 Xposition Yposition Zposition Zrotation Xrotation Yrotation 
				JOINT Foot_R
				{
					OFFSET -40.9854 0.0 0.0
					CHANNELS 6 Xposition Yposition Zposition Zrotation Xrotation Yrotation 
					JOINT Toes_R
					{
						OFFSET -11.7543 0.0 0.0
						CHANNELS 6 Xposition Yposition Zposition Zrotation Xrotation Yrotation 
						End Site
						{
							OFFSET 0.0 0.0 0.0
						}
					}
				}
			}
		}
	}
}
MOTION
Frames:	6
Frame Time:	0.0333333
0.000000 0.000000 0.000000 0.000000 0.000000 -0.000000 -1.124250 92.498900 0.118215 88.468900 -1.354020 1.901680 15.735700 0.000005 -0.000001 69.952100 86.088800 -67.283500 8.984550 -0.406207 -0.000000 -0.344645 -2.869740 5.326560 16.377300 -0.000001 -0.000001 0.404474 0.879247 -4.552420 6.456720 -0.000001 -0.000000 1.680330 0.827794 -1.062960 12.994200 -0.242716 4.980390 -86.309200 -7.464810 -63.594500 5.348090 -0.000007 -0.000001 -52.081900 -57.270300 -92.664300 24.328600 0.000019 0.000005 5.125520 3.875760 -52.994700 22.291600 -0.000001 0.000005 30.573300 5.642300 -14.298700 12.994500 -0.242716 -4.980390 88.850700 3.530470 -71.955200 -5.348130 -0.000001 -0.000004 -64.839900 33.786700 -15.724600 -24.328900 0.000322 -0.000009 2.151010 7.121950 -16.863000 -22.291500 -0.000108 -0.000004 9.702410 5.389930 -2.612730 -2.192480 -6.469440 -0.000000 -175.708000 -8.902920 -3.187010 39.081100 -0.000007 -0.000012 -0.102602 0.272311 20.645600 40.985400 -0.000006 -0.000013 -0.666664 3.332710 -65.597400 11.754300 -0.000000 0.000003 -0.000061 -0.000677 -16.603800 -2.192510 6.469440 -0.000001 -179.775000 14.438200 179.052000 -39.081100 -0.002282 -0.040193 -0.026361 0.092998 17.704100 -40.985400 0.000008 0.000006 3.779850 7.205360 -65.463600 -11.754300 -0.000006 -0.000006 -0.007734 -0.085846 -20.068500
0.000000 0.000000 0.000000 0.000000 0.000000 -0.000000 -1.053160 92.506700 0.125314 88.453300 -2.126550 1.809420 15.735700 0.000005 -0.000001 69.953500 86.051700 -67.032800 8.984550 -0.406207 -0.000000 -0.266489 -2.910720 5.832240 16.377300 -0.000001 -0.000001 0.328996 0.704646 -4.314350 6.456720 -0.000001 -0.000000 1.598440 0.752894 -1.119020 12.994200 -0.242716 4.980390 -86.338600 -7.433800 -63.683100 5.348090 -0.000007 -0.000001 -54.590700 -58.061800 -91.669200 24.328600 0.000019 0.000005 4.688620 4.753190 -44.708800 22.291600 -0.000001 0.000005 28.396900 5.604300 -11.557500 12.994500 -0.242716 -4.980390 88.845600 3.496610 -71.716000 -5.348130 -0.000001 -0.000004 -64.340800 33.801300 -16.135000 -24.328900 0.000322 -0.000009 2.196740 6.510020 -18.702100 -22.291500 -0.000108 -0.000004 9.720510 5.394210 -2.750420 -2.192480 -6.469440 -0.000000 -175.764000 -9.271830 -3.114990 39.081100 -0.000007 -0.000012 -0.101363 0.270452 20.545600 40.985400 -0.000006 -0.000013 -0.696292 2.939180 -65.624100 11.754300 -0.000000 0.000003 -0.000056 -0.000623 -16.601700 -2.192510 6.469440 -0.000001 -179.803000 13.935900 178.913000 -39.081100 -0.002282 -0.040193 -0.028453 0.099656 17.686600 -40.985400 0.000008 0.000006 3.686410 7.514760 -65.383100 -11.754300 -0.000006 -0.000006 -0.007972 -0.087800 -20.148300
0.000000 0.000000 0.000000 0.000000 0.000000 -0.000000 -1.002330 92.528000 0.114225 88.422200 -2.759690 1.643880 15.735700 0.000005 -0.000001 69.968700 86.048600 -66.809600 8.984550 -0.406207 -0.000000 -0.252159 -2.927200 6.309300 16.377300 -0.000001 -0.000001 0.362792 0.599389 -4.084380 6.456720 -0.000001 -0.000000 1.543980 0.721260 -1.442230 12.994200 -0.242716 4.980390 -86.341700 -7.466780 -63.802400 5.348090 -0.000007 -0.000001 -59.205300 -58.698700 -92.725000 24.328600 0.000019 0.000005 3.765780 5.099810 -36.511900 22.291600 -0.000001 0.000005 25.871400 5.524380 -7.508880 12.994500 -0.242716 -4.980390 88.853300 3.458100 -71.642400 -5.348130 -0.000001 -0.000004 -63.953000 33.853400 -16.310300 -24.328900 0.000322 -0.000009 2.212800 6.071080 -20.078400 -22.291500 -0.000108 -0.000004 9.712360 5.399690 -2.927310 -2.192480 -6.469440 -0.000000 -175.801000 -9.616990 -3.113510 39.081100 -0.000007 -0.000012 -0.100439 0.270479 20.371900 40.985400 -0.000006 -0.000013 -0.728868 2.613680 -65.585100 11.754300 -0.000000 0.000003 -0.000051 -0.000572 -16.599800 -2.192510 6.469440 -0.000001 -179.753000 13.518000 178.745000 -39.081100 -0.002282 -0.040193 -0.025706 0.091711 17.565500 -40.985400 0.000008 0.000006 3.753390 7.753150 -65.274400 -11.754300 -0.000006 -0.000006 -0.007987 -0.087926 -20.153500
0.000000 0.000000 0.000000 0.000000 0.000000 -0.000000 -1.003180 92.530800 0.118705 88.376400 -3.162750 1.520540 15.735700 0.000005 -0.000001 69.984300 86.027200 -66.632100 8.984550 -0.406207 -0.000000 -0.204557 -2.951900 6.696350 16.377300 -0.000001 -0.000001 0.422107 0.523371 -4.002690 6.456720 -0.000001 -0.000000 1.560540 0.703074 -1.738080 12.994200 -0.242716 4.980390 -86.167500 -7.746290 -63.572100 5.348090 -0.000007 -0.000001 -70.360600 -57.882600 -99.097600 24.328600 0.000019 0.000005 2.967900 5.039240 -30.549400 22.291600 -0.000001 0.000005 23.608300 5.376650 -2.176020 12.994500 -0.242716 -4.980390 88.839500 3.482250 -71.556300 -5.348130 -0.000001 -0.000004 -63.528000 34.133400 -16.477000 -24.328900 0.000322 -0.000009 2.239120 5.926090 -20.750900 -22.291500 -0.000108 -0.000004 9.757080 5.403050 -3.036840 -2.192480 -6.469440 -0.000000 -175.769000 -9.917810 -3.155950 39.081100 -0.000007 -0.000012 -0.100423 0.270773 20.348600 40.985400 -0.000006 -0.000013 -0.745886 2.525910 -65.615400 11.754300 -0.000000 0.000003 -0.000068 -0.000743 -16.606300 -2.192510 6.469440 -0.000001 -179.687000 13.240900 178.616000 -39.081100 -0.002282 -0.040193 -0.027136 0.096451 17.527600 -40.985400 0.000008 0.000006 3.753590 7.873920 -65.231200 -11.754300 -0.000006 -0.000006 -0.007826 -0.086609 -20.099700
0.000000 0.000000 0.000000 0.000000 0.000000 -0.000000 -1.004790 92.539300 0.124296 88.410300 -3.261740 1.442640 15.735700 0.000005 -0.000001 69.748900 85.998900 -66.275900 8.984550 -0.406207 -0.000000 -0.157210 -3.009030 6.939090 16.377300 -0.000001 -0.000001 0.555514 0.480809 -4.010860 6.456720 -0.000001 -0.000000 1.540100 0.732834 -2.046580 12.994200 -0.242716 4.980390 -85.938600 -8.138380 -63.363300 5.348090 -0.000007 -0.000001 -85.887200 -55.120200 -108.259000 24.328600 0.000019 0.000005 2.015950 3.607240 -29.231100 22.291600 -0.000001 0.000005 23.838900 5.217380 2.262320 12.994500 -0.242716 -4.980390 88.844000 3.461750 -71.520600 -5.348130 -0.000001 -0.000004 -63.406900 34.178600 -16.434900 -24.328900 0.000322 -0.000009 2.354020 6.254610 -20.681400 -22.291500 -0.000108 -0.000004 9.650220 5.400230 -2.944820 -2.192480 -6.469440 -0.000000 -175.811000 -10.044200 -3.169070 39.081100 -0.000007 -0.000012 -0.100509 0.272542 20.243200 40.985400 -0.000006 -0.000013 -0.751332 2.517820 -65.568800 11.754300 -0.000000 0.000003 -0.000057 -0.000633 -16.602100 -2.192510 6.469440 -0.000001 -179.705000 13.180100 178.547000 -39.081100 -0.002282 -0.040193 -0.027330 0.097310 17.486200 -40.985400 0.000008 0.000006 3.717040 7.916590 -65.197300 -11.754300 -0.000006 -0.000006 -0.007967 -0.087760 -20.146700
0.000000 0.000000 0.000000 0.000000 0.000000 -0.000000 -1.056340 92.539400 0.140613 88.427900 -3.038880 1.361110 15.735700 0.000005 -0.000001 69.655400 85.995100 -66.173500 8.984550 -0.406207 -0.000000 -0.153838 -3.024440 6.956980 16.377300 -0.000001 -0.000001 0.612396 0.346021 -3.913060 6.456720 -0.000001 -0.000000 1.576760 0.678212 -2.145000 12.994200 -0.242716 4.980390 -85.768000 -8.449780 -63.271200 5.348090 -0.000007 -0.000001 -96.247400 -52.085000 -113.625000 24.328600 0.000019 0.000005 -2.249140 -3.733540 -31.056200 22.291600 -0.000001 0.000005 28.646600 5.209390 2.522000 12.994500 -0.242716 -4.980390 88.820300 3.523730 -71.476700 -5.348130 -0.000001 -0.000004 -63.616600 34.052300 -15.977000 -24.328900 0.000322 -0.000009 2.323340 6.367160 -20.103600 -22.291500 -0.000108 -0.000004 9.546490 5.398880 -2.901160 -2.192480 -6.469440 -0.000000 -175.794000 -9.962560 -3.252320 39.081100 -0.000007 -0.000012 -0.100725 0.273519 20.216600 40.985400 -0.000006 -0.000013 -0.765152 2.667560 -65.547600 11.754300 -0.000000 0.000003 -0.000058 -0.000641 -16.602400 -2.192510 6.469440 -0.000001 -179.678000 13.315600 178.519000 -39.081100 -0.002282 -0.040193 -0.029598 0.104869 17.429900 -40.985400 0.000008 0.000006 3.614240 7.851590 -65.182100 -11.754300 -0.000006 -0.000006 -0.007514 -0.084019 -19.994000
